<svg aria-roledescription="flowchart-v2" role="graphics-document document" viewBox="-8 -8 605 977" style="max-width: 605px;" xmlns="http://www.w3.org/2000/svg" width="605" id="svg" height="977"><style>#svg{font-family:"trebuchet ms",verdana,arial,sans-serif;font-size:16px;fill:#333;}#svg .error-icon{fill:#552222;}#svg .error-text{fill:#552222;stroke:#552222;}#svg .edge-thickness-normal{stroke-width:2px;}#svg .edge-thickness-thick{stroke-width:3.5px;}#svg .edge-pattern-solid{stroke-dasharray:0;}#svg .edge-pattern-dashed{stroke-dasharray:3;}#svg .edge-pattern-dotted{stroke-dasharray:2;}#svg .marker{fill:#333333;stroke:#333333;}#svg .marker.cross{stroke:#333333;}#svg svg{font-family:"trebuchet ms",verdana,arial,sans-serif;font-size:16px;}#svg .label{font-family:"trebuchet ms",verdana,arial,sans-serif;color:#333;}#svg .cluster-label text{fill:#333;}#svg .cluster-label span,#svg p{color:#333;}#svg .label text,#svg span,#svg p{fill:#333;color:#333;}#svg .node rect,#svg .node circle,#svg .node ellipse,#svg .node polygon,#svg .node path{fill:#ECECFF;stroke:#9370DB;stroke-width:1px;}#svg .flowchart-label text{text-anchor:middle;}#svg .node .katex path{fill:#000;stroke:#000;stroke-width:1px;}#svg .node .label{text-align:center;}#svg .node.clickable{cursor:pointer;}#svg .arrowheadPath{fill:#333333;}#svg .edgePath .path{stroke:#333333;stroke-width:2.0px;}#svg .flowchart-link{stroke:#333333;fill:none;}#svg .edgeLabel{background-color:#e8e8e8;text-align:center;}#svg .edgeLabel rect{opacity:0.5;background-color:#e8e8e8;fill:#e8e8e8;}#svg .labelBkg{background-color:rgba(232, 232, 232, 0.5);}#svg .cluster rect{fill:#ffffde;stroke:#aaaa33;stroke-width:1px;}#svg .cluster text{fill:#333;}#svg .cluster span,#svg p{color:#333;}#svg div.mermaidTooltip{position:absolute;text-align:center;max-width:200px;padding:2px;font-family:"trebuchet ms",verdana,arial,sans-serif;font-size:12px;background:hsl(80, 100%, 96.2745098039%);border:1px solid #aaaa33;border-radius:2px;pointer-events:none;z-index:100;}#svg .flowchartTitleText{text-anchor:middle;font-size:18px;fill:#333;}#svg .today{display:none;}#svg .label foreignObject{overflow:visible;}#svg :root{--mermaid-font-family:"trebuchet ms",verdana,arial,sans-serif;}</style><g><marker orient="auto" markerHeight="12" markerWidth="12" markerUnits="userSpaceOnUse" refY="5" refX="6" viewBox="0 0 10 10" class="marker flowchart" id="svg_flowchart-pointEnd"><path style="stroke-width: 1; stroke-dasharray: 1, 0;" class="arrowMarkerPath" d="M 0 0 L 10 5 L 0 10 z"></path></marker><marker orient="auto" markerHeight="12" markerWidth="12" markerUnits="userSpaceOnUse" refY="5" refX="4.5" viewBox="0 0 10 10" class="marker flowchart" id="svg_flowchart-pointStart"><path style="stroke-width: 1; stroke-dasharray: 1, 0;" class="arrowMarkerPath" d="M 0 5 L 10 10 L 10 0 z"></path></marker><marker orient="auto" markerHeight="11" markerWidth="11" markerUnits="userSpaceOnUse" refY="5" refX="11" viewBox="0 0 10 10" class="marker flowchart" id="svg_flowchart-circleEnd"><circle style="stroke-width: 1; stroke-dasharray: 1, 0;" class="arrowMarkerPath" r="5" cy="5" cx="5"></circle></marker><marker orient="auto" markerHeight="11" markerWidth="11" markerUnits="userSpaceOnUse" refY="5" refX="-1" viewBox="0 0 10 10" class="marker flowchart" id="svg_flowchart-circleStart"><circle style="stroke-width: 1; stroke-dasharray: 1, 0;" class="arrowMarkerPath" r="5" cy="5" cx="5"></circle></marker><marker orient="auto" markerHeight="11" markerWidth="11" markerUnits="userSpaceOnUse" refY="5.2" refX="12" viewBox="0 0 11 11" class="marker cross flowchart" id="svg_flowchart-crossEnd"><path style="stroke-width: 2; stroke-dasharray: 1, 0;" class="arrowMarkerPath" d="M 1,1 l 9,9 M 10,1 l -9,9"></path></marker><marker orient="auto" markerHeight="11" markerWidth="11" markerUnits="userSpaceOnUse" refY="5.2" refX="-1" viewBox="0 0 11 11" class="marker cross flowchart" id="svg_flowchart-crossStart"><path style="stroke-width: 2; stroke-dasharray: 1, 0;" class="arrowMarkerPath" d="M 1,1 l 9,9 M 10,1 l -9,9"></path></marker><g class="root"><g class="clusters"></g><g class="edgePaths"><path marker-end="url(#svg_flowchart-pointEnd)" style="fill:none;" class="edge-thickness-normal edge-pattern-solid flowchart-link LS-A LE-B" id="L-A-B-0" d="M384,36L384,40.167C384,44.333,384,52.667,384,60.117C384,67.567,384,74.133,384,77.417L384,80.7"></path><path marker-end="url(#svg_flowchart-pointEnd)" style="fill:none;" class="edge-thickness-normal edge-pattern-solid flowchart-link LS-B LE-C" id="L-B-C-0" d="M384,120L384,124.167C384,128.333,384,136.667,384,144.117C384,151.567,384,158.133,384,161.417L384,164.7"></path><path marker-end="url(#svg_flowchart-pointEnd)" style="fill:none;" class="edge-thickness-normal edge-pattern-solid flowchart-link LS-C LE-D" id="L-C-D-0" d="M384,204L384,208.167C384,212.333,384,220.667,384,228.117C384,235.567,384,242.133,384,245.417L384,248.7"></path><path marker-end="url(#svg_flowchart-pointEnd)" style="fill:none;" class="edge-thickness-normal edge-pattern-solid flowchart-link LS-D LE-E" id="L-D-E-0" d="M384,288L384,292.167C384,296.333,384,304.667,384,312.117C384,319.567,384,326.133,384,329.417L384,332.7"></path><path marker-end="url(#svg_flowchart-pointEnd)" style="fill:none;" class="edge-thickness-normal edge-pattern-solid flowchart-link LS-E LE-F" id="L-E-F-0" d="M340.5,363.39L311.458,368.992C282.417,374.594,224.333,385.797,195.366,398.848C166.399,411.9,166.548,426.8,166.623,434.25L166.697,441.7"></path><path marker-end="url(#svg_flowchart-pointEnd)" style="fill:none;" class="edge-thickness-normal edge-pattern-solid flowchart-link LS-F LE-G" id="L-F-G-0" d="M139.856,535.106L127.047,549.505C114.237,563.904,88.619,592.702,75.809,618.884C63,645.067,63,668.633,63,680.417L63,692.2"></path><path marker-end="url(#svg_flowchart-pointEnd)" style="fill:none;" class="edge-thickness-normal edge-pattern-solid flowchart-link LS-G LE-H" id="L-G-H-0" d="M63,731.5L63,744.167C63,756.833,63,782.167,63,799.867C63,817.567,63,827.633,63,832.667L63,837.7"></path><path marker-end="url(#svg_flowchart-pointEnd)" style="fill:none;" class="edge-thickness-normal edge-pattern-solid flowchart-link LS-F LE-I" id="L-F-I-0" d="M166.75,562L166.667,571.917C166.583,581.833,166.417,601.667,173.085,620.89C179.753,640.113,193.255,658.727,200.006,668.033L206.758,677.34"></path><path marker-end="url(#svg_flowchart-pointEnd)" style="fill:none;" class="edge-thickness-normal edge-pattern-solid flowchart-link LS-I LE-J" id="L-I-J-0" d="M234,772.5L233.917,778.333C233.833,784.167,233.667,795.833,233.583,806.7C233.5,817.567,233.5,827.633,233.5,832.667L233.5,837.7"></path><path marker-end="url(#svg_flowchart-pointEnd)" style="fill:none;" class="edge-thickness-normal edge-pattern-solid flowchart-link LS-J LE-K" id="L-J-K-0" d="M233.5,877L233.5,881.167C233.5,885.333,233.5,893.667,233.5,901.117C233.5,908.567,233.5,915.133,233.5,918.417L233.5,921.7"></path><path marker-end="url(#svg_flowchart-pointEnd)" style="fill:none;" class="edge-thickness-normal edge-pattern-solid flowchart-link LS-I LE-F" id="L-I-F-0" d="M255.122,678.622L260.519,669.102C265.915,659.582,276.707,640.541,267.48,616.851C258.253,593.162,229.005,564.824,214.382,550.655L199.758,536.486"></path><path marker-end="url(#svg_flowchart-pointEnd)" style="fill:none;" class="edge-thickness-normal edge-pattern-solid flowchart-link LS-E LE-L" id="L-E-L-0" d="M422.351,372L431.751,376.167C441.151,380.333,459.95,388.667,469.416,396.2C478.882,403.734,479.014,410.467,479.08,413.834L479.146,417.201"></path><path marker-end="url(#svg_flowchart-pointEnd)" style="fill:none;" class="edge-thickness-normal edge-pattern-solid flowchart-link LS-L LE-M" id="L-L-M-0" d="M442.968,550.218L433.39,562.098C423.812,573.978,404.656,597.739,395.078,621.403C385.5,645.067,385.5,668.633,385.5,680.417L385.5,692.2"></path><path marker-end="url(#svg_flowchart-pointEnd)" style="fill:none;" class="edge-thickness-normal edge-pattern-solid flowchart-link LS-L LE-N" id="L-L-N-0" d="M505.637,560.113L510.447,570.344C515.258,580.576,524.879,601.038,529.689,623.052C534.5,645.067,534.5,668.633,534.5,680.417L534.5,692.2"></path></g><g class="edgeLabels"><g class="edgeLabel"><g transform="translate(0, 0)" class="label"><foreignObject height="0" width="0"><div style="display: inline-block; white-space: nowrap;" xmlns="http://www.w3.org/1999/xhtml"><span class="edgeLabel"></span></div></foreignObject></g></g><g class="edgeLabel"><g transform="translate(0, 0)" class="label"><foreignObject height="0" width="0"><div style="display: inline-block; white-space: nowrap;" xmlns="http://www.w3.org/1999/xhtml"><span class="edgeLabel"></span></div></foreignObject></g></g><g class="edgeLabel"><g transform="translate(0, 0)" class="label"><foreignObject height="0" width="0"><div style="display: inline-block; white-space: nowrap;" xmlns="http://www.w3.org/1999/xhtml"><span class="edgeLabel"></span></div></foreignObject></g></g><g class="edgeLabel"><g transform="translate(0, 0)" class="label"><foreignObject height="0" width="0"><div style="display: inline-block; white-space: nowrap;" xmlns="http://www.w3.org/1999/xhtml"><span class="edgeLabel"></span></div></foreignObject></g></g><g class="edgeLabel"><g transform="translate(0, 0)" class="label"><foreignObject height="0" width="0"><div style="display: inline-block; white-space: nowrap;" xmlns="http://www.w3.org/1999/xhtml"><span class="edgeLabel"></span></div></foreignObject></g></g><g transform="translate(63, 621.5)" class="edgeLabel"><g transform="translate(-8, -10.5)" class="label"><foreignObject height="21" width="16"><div style="display: inline-block; white-space: nowrap;" xmlns="http://www.w3.org/1999/xhtml"><span class="edgeLabel">是</span></div></foreignObject></g></g><g class="edgeLabel"><g transform="translate(0, 0)" class="label"><foreignObject height="0" width="0"><div style="display: inline-block; white-space: nowrap;" xmlns="http://www.w3.org/1999/xhtml"><span class="edgeLabel"></span></div></foreignObject></g></g><g transform="translate(166.25, 621.5)" class="edgeLabel"><g transform="translate(-8, -10.5)" class="label"><foreignObject height="21" width="16"><div style="display: inline-block; white-space: nowrap;" xmlns="http://www.w3.org/1999/xhtml"><span class="edgeLabel">否</span></div></foreignObject></g></g><g transform="translate(233.5, 807.5)" class="edgeLabel"><g transform="translate(-8, -10.5)" class="label"><foreignObject height="21" width="16"><div style="display: inline-block; white-space: nowrap;" xmlns="http://www.w3.org/1999/xhtml"><span class="edgeLabel">是</span></div></foreignObject></g></g><g class="edgeLabel"><g transform="translate(0, 0)" class="label"><foreignObject height="0" width="0"><div style="display: inline-block; white-space: nowrap;" xmlns="http://www.w3.org/1999/xhtml"><span class="edgeLabel"></span></div></foreignObject></g></g><g transform="translate(287.5, 621.5)" class="edgeLabel"><g transform="translate(-8, -10.5)" class="label"><foreignObject height="21" width="16"><div style="display: inline-block; white-space: nowrap;" xmlns="http://www.w3.org/1999/xhtml"><span class="edgeLabel">否</span></div></foreignObject></g></g><g class="edgeLabel"><g transform="translate(0, 0)" class="label"><foreignObject height="0" width="0"><div style="display: inline-block; white-space: nowrap;" xmlns="http://www.w3.org/1999/xhtml"><span class="edgeLabel"></span></div></foreignObject></g></g><g transform="translate(385.5, 621.5)" class="edgeLabel"><g transform="translate(-16, -10.5)" class="label"><foreignObject height="21" width="32"><div style="display: inline-block; white-space: nowrap;" xmlns="http://www.w3.org/1999/xhtml"><span class="edgeLabel">激活</span></div></foreignObject></g></g><g transform="translate(534.5, 621.5)" class="edgeLabel"><g transform="translate(-16, -10.5)" class="label"><foreignObject height="21" width="32"><div style="display: inline-block; white-space: nowrap;" xmlns="http://www.w3.org/1999/xhtml"><span class="edgeLabel">停用</span></div></foreignObject></g></g></g><g class="nodes"><g transform="translate(384, 18)" data-id="A" data-node="true" id="flowchart-A-0" class="node default default flowchart-label"><rect height="36" width="109" y="-18" x="-54.5" ry="0" rx="0" style="" class="basic label-container"></rect><g transform="translate(-47, -10.5)" style="" class="label"><rect></rect><foreignObject height="21" width="94"><div style="display: inline-block; white-space: nowrap;" xmlns="http://www.w3.org/1999/xhtml"><span class="nodeLabel">创建Vue实例</span></div></foreignObject></g></g><g transform="translate(384, 103)" data-id="B" data-node="true" id="flowchart-B-1" class="node default default flowchart-label"><rect height="34" width="122" y="-17" x="-61" ry="0" rx="0" style="" class="basic label-container"></rect><g transform="translate(-53.5, -9.5)" style="" class="label"><rect></rect><foreignObject height="19" width="107"><div style="display: inline-block; white-space: nowrap;" xmlns="http://www.w3.org/1999/xhtml"><span class="nodeLabel">beforeCreate</span></div></foreignObject></g></g><g transform="translate(384, 187)" data-id="C" data-node="true" id="flowchart-C-3" class="node default default flowchart-label"><rect height="34" width="77" y="-17" x="-38.5" ry="0" rx="0" style="" class="basic label-container"></rect><g transform="translate(-31, -9.5)" style="" class="label"><rect></rect><foreignObject height="19" width="62"><div style="display: inline-block; white-space: nowrap;" xmlns="http://www.w3.org/1999/xhtml"><span class="nodeLabel">created</span></div></foreignObject></g></g><g transform="translate(384, 271)" data-id="D" data-node="true" id="flowchart-D-5" class="node default default flowchart-label"><rect height="34" width="118" y="-17" x="-59" ry="0" rx="0" style="" class="basic label-container"></rect><g transform="translate(-51.5, -9.5)" style="" class="label"><rect></rect><foreignObject height="19" width="103"><div style="display: inline-block; white-space: nowrap;" xmlns="http://www.w3.org/1999/xhtml"><span class="nodeLabel">beforeMount</span></div></foreignObject></g></g><g transform="translate(384, 355)" data-id="E" data-node="true" id="flowchart-E-7" class="node default default flowchart-label"><rect height="34" width="87" y="-17" x="-43.5" ry="0" rx="0" style="" class="basic label-container"></rect><g transform="translate(-36, -9.5)" style="" class="label"><rect></rect><foreignObject height="19" width="72"><div style="display: inline-block; white-space: nowrap;" xmlns="http://www.w3.org/1999/xhtml"><span class="nodeLabel">mounted</span></div></foreignObject></g></g><g transform="translate(166.25, 504)" data-id="F" data-node="true" id="flowchart-F-9" class="node default default flowchart-label"><polygon style="" transform="translate(-57.5,57.5)" class="label-container" points="57.5,0 115,-57.5 57.5,-115 0,-57.5"></polygon><g transform="translate(-32, -10.5)" style="" class="label"><rect></rect><foreignObject height="21" width="64"><div style="display: inline-block; white-space: nowrap;" xmlns="http://www.w3.org/1999/xhtml"><span class="nodeLabel">数据更新</span></div></foreignObject></g></g><g transform="translate(63, 714.5)" data-id="G" data-node="true" id="flowchart-G-11" class="node default default flowchart-label"><rect height="34" width="126" y="-17" x="-63" ry="0" rx="0" style="" class="basic label-container"></rect><g transform="translate(-55.5, -9.5)" style="" class="label"><rect></rect><foreignObject height="19" width="111"><div style="display: inline-block; white-space: nowrap;" xmlns="http://www.w3.org/1999/xhtml"><span class="nodeLabel">beforeUpdate</span></div></foreignObject></g></g><g transform="translate(63, 860)" data-id="H" data-node="true" id="flowchart-H-13" class="node default default flowchart-label"><rect height="34" width="81" y="-17" x="-40.5" ry="0" rx="0" style="" class="basic label-container"></rect><g transform="translate(-33, -9.5)" style="" class="label"><rect></rect><foreignObject height="19" width="66"><div style="display: inline-block; white-space: nowrap;" xmlns="http://www.w3.org/1999/xhtml"><span class="nodeLabel">updated</span></div></foreignObject></g></g><g transform="translate(233.5, 714.5)" data-id="I" data-node="true" id="flowchart-I-15" class="node default default flowchart-label"><polygon style="" transform="translate(-57.5,57.5)" class="label-container" points="57.5,0 115,-57.5 57.5,-115 0,-57.5"></polygon><g transform="translate(-32, -10.5)" style="" class="label"><rect></rect><foreignObject height="21" width="64"><div style="display: inline-block; white-space: nowrap;" xmlns="http://www.w3.org/1999/xhtml"><span class="nodeLabel">组件销毁</span></div></foreignObject></g></g><g transform="translate(233.5, 860)" data-id="J" data-node="true" id="flowchart-J-17" class="node default default flowchart-label"><rect height="34" width="130" y="-17" x="-65" ry="0" rx="0" style="" class="basic label-container"></rect><g transform="translate(-57.5, -9.5)" style="" class="label"><rect></rect><foreignObject height="19" width="115"><div style="display: inline-block; white-space: nowrap;" xmlns="http://www.w3.org/1999/xhtml"><span class="nodeLabel">beforeDestroy</span></div></foreignObject></g></g><g transform="translate(233.5, 944)" data-id="K" data-node="true" id="flowchart-K-19" class="node default default flowchart-label"><rect height="34" width="95" y="-17" x="-47.5" ry="0" rx="0" style="" class="basic label-container"></rect><g transform="translate(-40, -9.5)" style="" class="label"><rect></rect><foreignObject height="19" width="80"><div style="display: inline-block; white-space: nowrap;" xmlns="http://www.w3.org/1999/xhtml"><span class="nodeLabel">destroyed</span></div></foreignObject></g></g><g transform="translate(478.75, 504)" data-id="L" data-node="true" id="flowchart-L-23" class="node default default flowchart-label"><polygon style="" transform="translate(-82,82)" class="label-container" points="82,0 164,-82 82,-164 0,-82"></polygon><g transform="translate(-56.5, -10.5)" style="" class="label"><rect></rect><foreignObject height="21" width="113"><div style="display: inline-block; white-space: nowrap;" xmlns="http://www.w3.org/1999/xhtml"><span class="nodeLabel">keep-alive组件</span></div></foreignObject></g></g><g transform="translate(385.5, 714.5)" data-id="M" data-node="true" id="flowchart-M-25" class="node default default flowchart-label"><rect height="34" width="89" y="-17" x="-44.5" ry="0" rx="0" style="" class="basic label-container"></rect><g transform="translate(-37, -9.5)" style="" class="label"><rect></rect><foreignObject height="19" width="74"><div style="display: inline-block; white-space: nowrap;" xmlns="http://www.w3.org/1999/xhtml"><span class="nodeLabel">activated</span></div></foreignObject></g></g><g transform="translate(534.5, 714.5)" data-id="N" data-node="true" id="flowchart-N-27" class="node default default flowchart-label"><rect height="34" width="109" y="-17" x="-54.5" ry="0" rx="0" style="" class="basic label-container"></rect><g transform="translate(-47, -9.5)" style="" class="label"><rect></rect><foreignObject height="19" width="94"><div style="display: inline-block; white-space: nowrap;" xmlns="http://www.w3.org/1999/xhtml"><span class="nodeLabel">deactivated</span></div></foreignObject></g></g></g></g></g></svg>