<svg aria-roledescription="flowchart-v2" role="graphics-document document" viewBox="-8 -8 2311.75 835" style="max-width: 2311.75px;" xmlns="http://www.w3.org/2000/svg" width="2311.75" id="svg" height="835"><style>#svg{font-family:"trebuchet ms",verdana,arial,sans-serif;font-size:16px;fill:#333;}#svg .error-icon{fill:#552222;}#svg .error-text{fill:#552222;stroke:#552222;}#svg .edge-thickness-normal{stroke-width:2px;}#svg .edge-thickness-thick{stroke-width:3.5px;}#svg .edge-pattern-solid{stroke-dasharray:0;}#svg .edge-pattern-dashed{stroke-dasharray:3;}#svg .edge-pattern-dotted{stroke-dasharray:2;}#svg .marker{fill:#333333;stroke:#333333;}#svg .marker.cross{stroke:#333333;}#svg svg{font-family:"trebuchet ms",verdana,arial,sans-serif;font-size:16px;}#svg .label{font-family:"trebuchet ms",verdana,arial,sans-serif;color:#333;}#svg .cluster-label text{fill:#333;}#svg .cluster-label span,#svg p{color:#333;}#svg .label text,#svg span,#svg p{fill:#333;color:#333;}#svg .node rect,#svg .node circle,#svg .node ellipse,#svg .node polygon,#svg .node path{fill:#ECECFF;stroke:#9370DB;stroke-width:1px;}#svg .flowchart-label text{text-anchor:middle;}#svg .node .katex path{fill:#000;stroke:#000;stroke-width:1px;}#svg .node .label{text-align:center;}#svg .node.clickable{cursor:pointer;}#svg .arrowheadPath{fill:#333333;}#svg .edgePath .path{stroke:#333333;stroke-width:2.0px;}#svg .flowchart-link{stroke:#333333;fill:none;}#svg .edgeLabel{background-color:#e8e8e8;text-align:center;}#svg .edgeLabel rect{opacity:0.5;background-color:#e8e8e8;fill:#e8e8e8;}#svg .labelBkg{background-color:rgba(232, 232, 232, 0.5);}#svg .cluster rect{fill:#ffffde;stroke:#aaaa33;stroke-width:1px;}#svg .cluster text{fill:#333;}#svg .cluster span,#svg p{color:#333;}#svg div.mermaidTooltip{position:absolute;text-align:center;max-width:200px;padding:2px;font-family:"trebuchet ms",verdana,arial,sans-serif;font-size:12px;background:hsl(80, 100%, 96.2745098039%);border:1px solid #aaaa33;border-radius:2px;pointer-events:none;z-index:100;}#svg .flowchartTitleText{text-anchor:middle;font-size:18px;fill:#333;}#svg .today{display:none;}#svg .label foreignObject{overflow:visible;}#svg :root{--mermaid-font-family:"trebuchet ms",verdana,arial,sans-serif;}</style><g><marker orient="auto" markerHeight="12" markerWidth="12" markerUnits="userSpaceOnUse" refY="5" refX="6" viewBox="0 0 10 10" class="marker flowchart" id="svg_flowchart-pointEnd"><path style="stroke-width: 1; stroke-dasharray: 1, 0;" class="arrowMarkerPath" d="M 0 0 L 10 5 L 0 10 z"></path></marker><marker orient="auto" markerHeight="12" markerWidth="12" markerUnits="userSpaceOnUse" refY="5" refX="4.5" viewBox="0 0 10 10" class="marker flowchart" id="svg_flowchart-pointStart"><path style="stroke-width: 1; stroke-dasharray: 1, 0;" class="arrowMarkerPath" d="M 0 5 L 10 10 L 10 0 z"></path></marker><marker orient="auto" markerHeight="11" markerWidth="11" markerUnits="userSpaceOnUse" refY="5" refX="11" viewBox="0 0 10 10" class="marker flowchart" id="svg_flowchart-circleEnd"><circle style="stroke-width: 1; stroke-dasharray: 1, 0;" class="arrowMarkerPath" r="5" cy="5" cx="5"></circle></marker><marker orient="auto" markerHeight="11" markerWidth="11" markerUnits="userSpaceOnUse" refY="5" refX="-1" viewBox="0 0 10 10" class="marker flowchart" id="svg_flowchart-circleStart"><circle style="stroke-width: 1; stroke-dasharray: 1, 0;" class="arrowMarkerPath" r="5" cy="5" cx="5"></circle></marker><marker orient="auto" markerHeight="11" markerWidth="11" markerUnits="userSpaceOnUse" refY="5.2" refX="12" viewBox="0 0 11 11" class="marker cross flowchart" id="svg_flowchart-crossEnd"><path style="stroke-width: 2; stroke-dasharray: 1, 0;" class="arrowMarkerPath" d="M 1,1 l 9,9 M 10,1 l -9,9"></path></marker><marker orient="auto" markerHeight="11" markerWidth="11" markerUnits="userSpaceOnUse" refY="5.2" refX="-1" viewBox="0 0 11 11" class="marker cross flowchart" id="svg_flowchart-crossStart"><path style="stroke-width: 2; stroke-dasharray: 1, 0;" class="arrowMarkerPath" d="M 1,1 l 9,9 M 10,1 l -9,9"></path></marker><g class="root"><g class="clusters"></g><g class="edgePaths"><path marker-end="url(#svg_flowchart-pointEnd)" style="fill:none;" class="edge-thickness-normal edge-pattern-solid flowchart-link LS-A LE-B" id="L-A-B-0" d="M193.25,36L193.25,40.167C193.25,44.333,193.25,52.667,193.25,70.117C193.25,87.567,193.25,114.133,193.25,127.417L193.25,140.7"></path><path marker-end="url(#svg_flowchart-pointEnd)" style="fill:none;" class="edge-thickness-normal edge-pattern-solid flowchart-link LS-B LE-C" id="L-B-C-0" d="M174.497,182L157.914,197.917C141.331,213.833,108.166,245.667,91.583,276.617C75,307.567,75,337.633,75,352.667L75,367.7"></path><path marker-end="url(#svg_flowchart-pointEnd)" style="fill:none;" class="edge-thickness-normal edge-pattern-solid flowchart-link LS-B LE-D" id="L-B-D-0" d="M212.003,182L228.586,197.917C245.169,213.833,278.334,245.667,294.917,276.617C311.5,307.567,311.5,337.633,311.5,352.667L311.5,367.7"></path><path marker-end="url(#svg_flowchart-pointEnd)" style="fill:none;" class="edge-thickness-normal edge-pattern-solid flowchart-link LS-E LE-F" id="L-E-F-0" d="M683.75,36L683.75,40.167C683.75,44.333,683.75,52.667,683.816,60.2C683.882,67.734,684.014,74.467,684.08,77.834L684.146,81.201"></path><path marker-end="url(#svg_flowchart-pointEnd)" style="fill:none;" class="edge-thickness-normal edge-pattern-solid flowchart-link LS-F LE-G" id="L-F-G-0" d="M643.882,202.132L630.235,214.694C616.588,227.255,589.294,252.377,575.647,279.972C562,307.567,562,337.633,562,352.667L562,367.7"></path><path marker-end="url(#svg_flowchart-pointEnd)" style="fill:none;" class="edge-thickness-normal edge-pattern-solid flowchart-link LS-F LE-H" id="L-F-H-0" d="M724.618,202.132L738.098,214.694C751.578,227.255,778.539,252.377,792.02,279.972C805.5,307.567,805.5,337.633,805.5,352.667L805.5,367.7"></path><path marker-end="url(#svg_flowchart-pointEnd)" style="fill:none;" class="edge-thickness-normal edge-pattern-solid flowchart-link LS-I LE-J" id="L-I-J-0" d="M1055.5,36L1055.5,40.167C1055.5,44.333,1055.5,52.667,1055.5,70.117C1055.5,87.567,1055.5,114.133,1055.5,127.417L1055.5,140.7"></path><path marker-end="url(#svg_flowchart-pointEnd)" style="fill:none;" class="edge-thickness-normal edge-pattern-solid flowchart-link LS-J LE-K" id="L-J-K-0" d="M1055.5,182L1055.5,197.917C1055.5,213.833,1055.5,245.667,1055.5,276.617C1055.5,307.567,1055.5,337.633,1055.5,352.667L1055.5,367.7"></path><path marker-end="url(#svg_flowchart-pointEnd)" style="fill:none;" class="edge-thickness-normal edge-pattern-solid flowchart-link LS-L LE-M" id="L-L-M-0" d="M1447.75,36L1447.75,40.167C1447.75,44.333,1447.75,52.667,1447.75,70.117C1447.75,87.567,1447.75,114.133,1447.75,127.417L1447.75,140.7"></path><path marker-end="url(#svg_flowchart-pointEnd)" style="fill:none;" class="edge-thickness-normal edge-pattern-solid flowchart-link LS-M LE-N" id="L-M-N-0" d="M1428.283,182L1411.069,197.917C1393.855,213.833,1359.428,245.667,1342.214,276.617C1325,307.567,1325,337.633,1325,352.667L1325,367.7"></path><path marker-end="url(#svg_flowchart-pointEnd)" style="fill:none;" class="edge-thickness-normal edge-pattern-solid flowchart-link LS-M LE-O" id="L-M-O-0" d="M1467.217,182L1484.431,197.917C1501.645,213.833,1536.072,245.667,1553.286,276.617C1570.5,307.567,1570.5,337.633,1570.5,352.667L1570.5,367.7"></path><path marker-end="url(#svg_flowchart-pointEnd)" style="fill:none;" class="edge-thickness-normal edge-pattern-solid flowchart-link LS-P LE-Q" id="L-P-Q-0" d="M1875.25,36L1875.25,40.167C1875.25,44.333,1875.25,52.667,1875.324,64.2C1875.399,75.733,1875.548,90.467,1875.622,97.834L1875.696,105.2"></path><path marker-end="url(#svg_flowchart-pointEnd)" style="fill:none;" class="edge-thickness-normal edge-pattern-solid flowchart-link LS-Q LE-R" id="L-Q-R-0" d="M1849.962,192.712L1836.885,206.843C1823.808,220.974,1797.654,249.237,1784.577,278.402C1771.5,307.567,1771.5,337.633,1771.5,352.667L1771.5,367.7"></path><path marker-end="url(#svg_flowchart-pointEnd)" style="fill:none;" class="edge-thickness-normal edge-pattern-solid flowchart-link LS-Q LE-S" id="L-Q-S-0" d="M1901.538,192.712L1914.449,206.843C1927.359,220.974,1953.179,249.237,1966.161,268.485C1979.142,287.734,1979.284,297.967,1979.355,303.084L1979.426,308.201"></path><path marker-end="url(#svg_flowchart-pointEnd)" style="fill:none;" class="edge-thickness-normal edge-pattern-solid flowchart-link LS-S LE-T" id="L-S-T-0" d="M1940.629,430.629L1928.233,442.941C1915.836,455.253,1891.043,479.876,1878.647,508.555C1866.25,537.233,1866.25,569.967,1866.25,586.333L1866.25,602.7"></path><path marker-end="url(#svg_flowchart-pointEnd)" style="fill:none;" class="edge-thickness-normal edge-pattern-solid flowchart-link LS-S LE-U" id="L-S-U-0" d="M2018.371,430.629L2030.601,442.941C2042.83,455.253,2067.29,479.876,2079.591,497.305C2091.892,514.734,2092.034,524.967,2092.105,530.084L2092.176,535.201"></path><path marker-end="url(#svg_flowchart-pointEnd)" style="fill:none;" class="edge-thickness-normal edge-pattern-solid flowchart-link LS-U LE-V" id="L-U-V-0" d="M2050.153,670.403L2037.669,683.253C2025.186,696.102,2000.218,721.801,1987.734,739.684C1975.25,757.567,1975.25,767.633,1975.25,772.667L1975.25,777.7"></path><path marker-end="url(#svg_flowchart-pointEnd)" style="fill:none;" class="edge-thickness-normal edge-pattern-solid flowchart-link LS-U LE-W" id="L-U-W-0" d="M2134.347,670.403L2146.664,683.253C2158.981,696.102,2183.616,721.801,2195.933,739.684C2208.25,757.567,2208.25,767.633,2208.25,772.667L2208.25,777.7"></path></g><g class="edgeLabels"><g class="edgeLabel"><g transform="translate(0, 0)" class="label"><foreignObject height="0" width="0"><div style="display: inline-block; white-space: nowrap;" xmlns="http://www.w3.org/1999/xhtml"><span class="edgeLabel"></span></div></foreignObject></g></g><g class="edgeLabel"><g transform="translate(0, 0)" class="label"><foreignObject height="0" width="0"><div style="display: inline-block; white-space: nowrap;" xmlns="http://www.w3.org/1999/xhtml"><span class="edgeLabel"></span></div></foreignObject></g></g><g class="edgeLabel"><g transform="translate(0, 0)" class="label"><foreignObject height="0" width="0"><div style="display: inline-block; white-space: nowrap;" xmlns="http://www.w3.org/1999/xhtml"><span class="edgeLabel"></span></div></foreignObject></g></g><g class="edgeLabel"><g transform="translate(0, 0)" class="label"><foreignObject height="0" width="0"><div style="display: inline-block; white-space: nowrap;" xmlns="http://www.w3.org/1999/xhtml"><span class="edgeLabel"></span></div></foreignObject></g></g><g transform="translate(562, 277.5)" class="edgeLabel"><g transform="translate(-8, -10.5)" class="label"><foreignObject height="21" width="16"><div style="display: inline-block; white-space: nowrap;" xmlns="http://www.w3.org/1999/xhtml"><span class="edgeLabel">是</span></div></foreignObject></g></g><g transform="translate(805.5, 277.5)" class="edgeLabel"><g transform="translate(-8, -10.5)" class="label"><foreignObject height="21" width="16"><div style="display: inline-block; white-space: nowrap;" xmlns="http://www.w3.org/1999/xhtml"><span class="edgeLabel">否</span></div></foreignObject></g></g><g class="edgeLabel"><g transform="translate(0, 0)" class="label"><foreignObject height="0" width="0"><div style="display: inline-block; white-space: nowrap;" xmlns="http://www.w3.org/1999/xhtml"><span class="edgeLabel"></span></div></foreignObject></g></g><g class="edgeLabel"><g transform="translate(0, 0)" class="label"><foreignObject height="0" width="0"><div style="display: inline-block; white-space: nowrap;" xmlns="http://www.w3.org/1999/xhtml"><span class="edgeLabel"></span></div></foreignObject></g></g><g class="edgeLabel"><g transform="translate(0, 0)" class="label"><foreignObject height="0" width="0"><div style="display: inline-block; white-space: nowrap;" xmlns="http://www.w3.org/1999/xhtml"><span class="edgeLabel"></span></div></foreignObject></g></g><g class="edgeLabel"><g transform="translate(0, 0)" class="label"><foreignObject height="0" width="0"><div style="display: inline-block; white-space: nowrap;" xmlns="http://www.w3.org/1999/xhtml"><span class="edgeLabel"></span></div></foreignObject></g></g><g class="edgeLabel"><g transform="translate(0, 0)" class="label"><foreignObject height="0" width="0"><div style="display: inline-block; white-space: nowrap;" xmlns="http://www.w3.org/1999/xhtml"><span class="edgeLabel"></span></div></foreignObject></g></g><g class="edgeLabel"><g transform="translate(0, 0)" class="label"><foreignObject height="0" width="0"><div style="display: inline-block; white-space: nowrap;" xmlns="http://www.w3.org/1999/xhtml"><span class="edgeLabel"></span></div></foreignObject></g></g><g transform="translate(1771.5, 277.5)" class="edgeLabel"><g transform="translate(-24, -10.5)" class="label"><foreignObject height="21" width="48"><div style="display: inline-block; white-space: nowrap;" xmlns="http://www.w3.org/1999/xhtml"><span class="edgeLabel">无参数</span></div></foreignObject></g></g><g transform="translate(1979, 277.5)" class="edgeLabel"><g transform="translate(-24, -10.5)" class="label"><foreignObject height="21" width="48"><div style="display: inline-block; white-space: nowrap;" xmlns="http://www.w3.org/1999/xhtml"><span class="edgeLabel">有参数</span></div></foreignObject></g></g><g transform="translate(1866.25, 504.5)" class="edgeLabel"><g transform="translate(-8, -10.5)" class="label"><foreignObject height="21" width="16"><div style="display: inline-block; white-space: nowrap;" xmlns="http://www.w3.org/1999/xhtml"><span class="edgeLabel">是</span></div></foreignObject></g></g><g transform="translate(2091.75, 504.5)" class="edgeLabel"><g transform="translate(-8, -10.5)" class="label"><foreignObject height="21" width="16"><div style="display: inline-block; white-space: nowrap;" xmlns="http://www.w3.org/1999/xhtml"><span class="edgeLabel">否</span></div></foreignObject></g></g><g transform="translate(1975.25, 747.5)" class="edgeLabel"><g transform="translate(-8, -10.5)" class="label"><foreignObject height="21" width="16"><div style="display: inline-block; white-space: nowrap;" xmlns="http://www.w3.org/1999/xhtml"><span class="edgeLabel">否</span></div></foreignObject></g></g><g transform="translate(2208.25, 747.5)" class="edgeLabel"><g transform="translate(-8, -10.5)" class="label"><foreignObject height="21" width="16"><div style="display: inline-block; white-space: nowrap;" xmlns="http://www.w3.org/1999/xhtml"><span class="edgeLabel">是</span></div></foreignObject></g></g></g><g class="nodes"><g transform="translate(193.25, 18)" data-id="A" data-node="true" id="flowchart-A-0" class="node default default flowchart-label"><rect height="36" width="114" y="-18" x="-57" ry="0" rx="0" style="" class="basic label-container"></rect><g transform="translate(-49.5, -10.5)" style="" class="label"><rect></rect><foreignObject height="21" width="99"><div style="display: inline-block; white-space: nowrap;" xmlns="http://www.w3.org/1999/xhtml"><span class="nodeLabel">Vue 实例创建</span></div></foreignObject></g></g><g transform="translate(193.25, 164)" data-id="B" data-node="true" id="flowchart-B-1" class="node default default flowchart-label"><rect height="36" width="209" y="-18" x="-104.5" ry="0" rx="0" style="" class="basic label-container"></rect><g transform="translate(-97, -10.5)" style="" class="label"><rect></rect><foreignObject height="21" width="194"><div style="display: inline-block; white-space: nowrap;" xmlns="http://www.w3.org/1999/xhtml"><span class="nodeLabel">initEvents 初始化事件系统</span></div></foreignObject></g></g><g transform="translate(75, 391)" data-id="C" data-node="true" id="flowchart-C-3" class="node default default flowchart-label"><rect height="36" width="150" y="-18" x="-75" ry="0" rx="0" style="" class="basic label-container"></rect><g transform="translate(-67.5, -10.5)" style="" class="label"><rect></rect><foreignObject height="21" width="135"><div style="display: inline-block; white-space: nowrap;" xmlns="http://www.w3.org/1999/xhtml"><span class="nodeLabel">创建 _events 对象</span></div></foreignObject></g></g><g transform="translate(311.5, 391)" data-id="D" data-node="true" id="flowchart-D-5" class="node default default flowchart-label"><rect height="36" width="223" y="-18" x="-111.5" ry="0" rx="0" style="" class="basic label-container"></rect><g transform="translate(-104, -10.5)" style="" class="label"><rect></rect><foreignObject height="21" width="208"><div style="display: inline-block; white-space: nowrap;" xmlns="http://www.w3.org/1999/xhtml"><span class="nodeLabel">处理父组件传递的事件监听器</span></div></foreignObject></g></g><g transform="translate(683.75, 18)" data-id="E" data-node="true" id="flowchart-E-6" class="node default default flowchart-label"><rect height="36" width="114" y="-18" x="-57" ry="0" rx="0" style="" class="basic label-container"></rect><g transform="translate(-49.5, -10.5)" style="" class="label"><rect></rect><foreignObject height="21" width="99"><div style="display: inline-block; white-space: nowrap;" xmlns="http://www.w3.org/1999/xhtml"><span class="nodeLabel">事件注册 $on</span></div></foreignObject></g></g><g transform="translate(683.75, 164)" data-id="F" data-node="true" id="flowchart-F-7" class="node default default flowchart-label"><polygon style="" transform="translate(-78,78)" class="label-container" points="78,0 156,-78 78,-156 0,-78"></polygon><g transform="translate(-52.5, -10.5)" style="" class="label"><rect></rect><foreignObject height="21" width="105"><div style="display: inline-block; white-space: nowrap;" xmlns="http://www.w3.org/1999/xhtml"><span class="nodeLabel">事件名是数组?</span></div></foreignObject></g></g><g transform="translate(562, 391)" data-id="G" data-node="true" id="flowchart-G-9" class="node default default flowchart-label"><rect height="36" width="178" y="-18" x="-89" ry="0" rx="0" style="" class="basic label-container"></rect><g transform="translate(-81.5, -10.5)" style="" class="label"><rect></rect><foreignObject height="21" width="163"><div style="display: inline-block; white-space: nowrap;" xmlns="http://www.w3.org/1999/xhtml"><span class="nodeLabel">遍历数组递归调用 $on</span></div></foreignObject></g></g><g transform="translate(805.5, 391)" data-id="H" data-node="true" id="flowchart-H-11" class="node default default flowchart-label"><rect height="36" width="209" y="-18" x="-104.5" ry="0" rx="0" style="" class="basic label-container"></rect><g transform="translate(-97, -10.5)" style="" class="label"><rect></rect><foreignObject height="21" width="194"><div style="display: inline-block; white-space: nowrap;" xmlns="http://www.w3.org/1999/xhtml"><span class="nodeLabel">将处理函数添加到 _events</span></div></foreignObject></g></g><g transform="translate(1055.5, 18)" data-id="I" data-node="true" id="flowchart-I-12" class="node default default flowchart-label"><rect height="36" width="130" y="-18" x="-65" ry="0" rx="0" style="" class="basic label-container"></rect><g transform="translate(-57.5, -10.5)" style="" class="label"><rect></rect><foreignObject height="21" width="115"><div style="display: inline-block; white-space: nowrap;" xmlns="http://www.w3.org/1999/xhtml"><span class="nodeLabel">事件触发 $emit</span></div></foreignObject></g></g><g transform="translate(1055.5, 164)" data-id="J" data-node="true" id="flowchart-J-13" class="node default default flowchart-label"><rect height="36" width="207" y="-18" x="-103.5" ry="0" rx="0" style="" class="basic label-container"></rect><g transform="translate(-96, -10.5)" style="" class="label"><rect></rect><foreignObject height="21" width="192"><div style="display: inline-block; white-space: nowrap;" xmlns="http://www.w3.org/1999/xhtml"><span class="nodeLabel">获取事件对应的所有监听器</span></div></foreignObject></g></g><g transform="translate(1055.5, 391)" data-id="K" data-node="true" id="flowchart-K-15" class="node default default flowchart-label"><rect height="36" width="191" y="-18" x="-95.5" ry="0" rx="0" style="" class="basic label-container"></rect><g transform="translate(-88, -10.5)" style="" class="label"><rect></rect><foreignObject height="21" width="176"><div style="display: inline-block; white-space: nowrap;" xmlns="http://www.w3.org/1999/xhtml"><span class="nodeLabel">依次调用所有监听器函数</span></div></foreignObject></g></g><g transform="translate(1447.75, 18)" data-id="L" data-node="true" id="flowchart-L-16" class="node default default flowchart-label"><rect height="36" width="149" y="-18" x="-74.5" ry="0" rx="0" style="" class="basic label-container"></rect><g transform="translate(-67, -10.5)" style="" class="label"><rect></rect><foreignObject height="21" width="134"><div style="display: inline-block; white-space: nowrap;" xmlns="http://www.w3.org/1999/xhtml"><span class="nodeLabel">一次性事件 $once</span></div></foreignObject></g></g><g transform="translate(1447.75, 164)" data-id="M" data-node="true" id="flowchart-M-17" class="node default default flowchart-label"><rect height="36" width="111" y="-18" x="-55.5" ry="0" rx="0" style="" class="basic label-container"></rect><g transform="translate(-48, -10.5)" style="" class="label"><rect></rect><foreignObject height="21" width="96"><div style="display: inline-block; white-space: nowrap;" xmlns="http://www.w3.org/1999/xhtml"><span class="nodeLabel">创建包装函数</span></div></foreignObject></g></g><g transform="translate(1325, 391)" data-id="N" data-node="true" id="flowchart-N-19" class="node default default flowchart-label"><rect height="36" width="248" y="-18" x="-124" ry="0" rx="0" style="" class="basic label-container"></rect><g transform="translate(-116.5, -10.5)" style="" class="label"><rect></rect><foreignObject height="21" width="233"><div style="display: inline-block; white-space: nowrap;" xmlns="http://www.w3.org/1999/xhtml"><span class="nodeLabel">在包装函数中调用 $off 移除自身</span></div></foreignObject></g></g><g transform="translate(1570.5, 391)" data-id="O" data-node="true" id="flowchart-O-21" class="node default default flowchart-label"><rect height="36" width="143" y="-18" x="-71.5" ry="0" rx="0" style="" class="basic label-container"></rect><g transform="translate(-64, -10.5)" style="" class="label"><rect></rect><foreignObject height="21" width="128"><div style="display: inline-block; white-space: nowrap;" xmlns="http://www.w3.org/1999/xhtml"><span class="nodeLabel">调用原始处理函数</span></div></foreignObject></g></g><g transform="translate(1875.25, 18)" data-id="P" data-node="true" id="flowchart-P-22" class="node default default flowchart-label"><rect height="36" width="131" y="-18" x="-65.5" ry="0" rx="0" style="" class="basic label-container"></rect><g transform="translate(-58, -10.5)" style="" class="label"><rect></rect><foreignObject height="21" width="116"><div style="display: inline-block; white-space: nowrap;" xmlns="http://www.w3.org/1999/xhtml"><span class="nodeLabel">移除监听器 $off</span></div></foreignObject></g></g><g transform="translate(1875.25, 164)" data-id="Q" data-node="true" id="flowchart-Q-23" class="node default default flowchart-label"><polygon style="" transform="translate(-54,54)" class="label-container" points="54,0 108,-54 54,-108 0,-54"></polygon><g transform="translate(-28.5, -10.5)" style="" class="label"><rect></rect><foreignObject height="21" width="57"><div style="display: inline-block; white-space: nowrap;" xmlns="http://www.w3.org/1999/xhtml"><span class="nodeLabel">有参数?</span></div></foreignObject></g></g><g transform="translate(1771.5, 391)" data-id="R" data-node="true" id="flowchart-R-25" class="node default default flowchart-label"><rect height="36" width="159" y="-18" x="-79.5" ry="0" rx="0" style="" class="basic label-container"></rect><g transform="translate(-72, -10.5)" style="" class="label"><rect></rect><foreignObject height="21" width="144"><div style="display: inline-block; white-space: nowrap;" xmlns="http://www.w3.org/1999/xhtml"><span class="nodeLabel">移除所有事件监听器</span></div></foreignObject></g></g><g transform="translate(1979, 391)" data-id="S" data-node="true" id="flowchart-S-27" class="node default default flowchart-label"><polygon style="" transform="translate(-78,78)" class="label-container" points="78,0 156,-78 78,-156 0,-78"></polygon><g transform="translate(-52.5, -10.5)" style="" class="label"><rect></rect><foreignObject height="21" width="105"><div style="display: inline-block; white-space: nowrap;" xmlns="http://www.w3.org/1999/xhtml"><span class="nodeLabel">事件名是数组?</span></div></foreignObject></g></g><g transform="translate(1866.25, 626)" data-id="T" data-node="true" id="flowchart-T-29" class="node default default flowchart-label"><rect height="36" width="179" y="-18" x="-89.5" ry="0" rx="0" style="" class="basic label-container"></rect><g transform="translate(-82, -10.5)" style="" class="label"><rect></rect><foreignObject height="21" width="164"><div style="display: inline-block; white-space: nowrap;" xmlns="http://www.w3.org/1999/xhtml"><span class="nodeLabel">遍历数组递归调用 $off</span></div></foreignObject></g></g><g transform="translate(2091.75, 626)" data-id="U" data-node="true" id="flowchart-U-31" class="node default default flowchart-label"><polygon style="" transform="translate(-86,86)" class="label-container" points="86,0 172,-86 86,-172 0,-86"></polygon><g transform="translate(-60.5, -10.5)" style="" class="label"><rect></rect><foreignObject height="21" width="121"><div style="display: inline-block; white-space: nowrap;" xmlns="http://www.w3.org/1999/xhtml"><span class="nodeLabel">指定了处理函数?</span></div></foreignObject></g></g><g transform="translate(1975.25, 801)" data-id="V" data-node="true" id="flowchart-V-33" class="node default default flowchart-label"><rect height="36" width="191" y="-18" x="-95.5" ry="0" rx="0" style="" class="basic label-container"></rect><g transform="translate(-88, -10.5)" style="" class="label"><rect></rect><foreignObject height="21" width="176"><div style="display: inline-block; white-space: nowrap;" xmlns="http://www.w3.org/1999/xhtml"><span class="nodeLabel">移除该事件的所有监听器</span></div></foreignObject></g></g><g transform="translate(2208.25, 801)" data-id="W" data-node="true" id="flowchart-W-35" class="node default default flowchart-label"><rect height="36" width="175" y="-18" x="-87.5" ry="0" rx="0" style="" class="basic label-container"></rect><g transform="translate(-80, -10.5)" style="" class="label"><rect></rect><foreignObject height="21" width="160"><div style="display: inline-block; white-space: nowrap;" xmlns="http://www.w3.org/1999/xhtml"><span class="nodeLabel">移除特定的监听器函数</span></div></foreignObject></g></g></g></g></g></svg>