<svg aria-roledescription="flowchart-v2" role="graphics-document document" viewBox="-8 -8 908 1060" style="max-width: 908px;" xmlns="http://www.w3.org/2000/svg" width="908" id="svg" height="1060"><style>#svg{font-family:"trebuchet ms",verdana,arial,sans-serif;font-size:16px;fill:#333;}#svg .error-icon{fill:#552222;}#svg .error-text{fill:#552222;stroke:#552222;}#svg .edge-thickness-normal{stroke-width:2px;}#svg .edge-thickness-thick{stroke-width:3.5px;}#svg .edge-pattern-solid{stroke-dasharray:0;}#svg .edge-pattern-dashed{stroke-dasharray:3;}#svg .edge-pattern-dotted{stroke-dasharray:2;}#svg .marker{fill:#333333;stroke:#333333;}#svg .marker.cross{stroke:#333333;}#svg svg{font-family:"trebuchet ms",verdana,arial,sans-serif;font-size:16px;}#svg .label{font-family:"trebuchet ms",verdana,arial,sans-serif;color:#333;}#svg .cluster-label text{fill:#333;}#svg .cluster-label span,#svg p{color:#333;}#svg .label text,#svg span,#svg p{fill:#333;color:#333;}#svg .node rect,#svg .node circle,#svg .node ellipse,#svg .node polygon,#svg .node path{fill:#ECECFF;stroke:#9370DB;stroke-width:1px;}#svg .flowchart-label text{text-anchor:middle;}#svg .node .katex path{fill:#000;stroke:#000;stroke-width:1px;}#svg .node .label{text-align:center;}#svg .node.clickable{cursor:pointer;}#svg .arrowheadPath{fill:#333333;}#svg .edgePath .path{stroke:#333333;stroke-width:2.0px;}#svg .flowchart-link{stroke:#333333;fill:none;}#svg .edgeLabel{background-color:#e8e8e8;text-align:center;}#svg .edgeLabel rect{opacity:0.5;background-color:#e8e8e8;fill:#e8e8e8;}#svg .labelBkg{background-color:rgba(232, 232, 232, 0.5);}#svg .cluster rect{fill:#ffffde;stroke:#aaaa33;stroke-width:1px;}#svg .cluster text{fill:#333;}#svg .cluster span,#svg p{color:#333;}#svg div.mermaidTooltip{position:absolute;text-align:center;max-width:200px;padding:2px;font-family:"trebuchet ms",verdana,arial,sans-serif;font-size:12px;background:hsl(80, 100%, 96.2745098039%);border:1px solid #aaaa33;border-radius:2px;pointer-events:none;z-index:100;}#svg .flowchartTitleText{text-anchor:middle;font-size:18px;fill:#333;}#svg .today{display:none;}#svg .label foreignObject{overflow:visible;}#svg :root{--mermaid-font-family:"trebuchet ms",verdana,arial,sans-serif;}</style><g><marker orient="auto" markerHeight="12" markerWidth="12" markerUnits="userSpaceOnUse" refY="5" refX="6" viewBox="0 0 10 10" class="marker flowchart" id="svg_flowchart-pointEnd"><path style="stroke-width: 1; stroke-dasharray: 1, 0;" class="arrowMarkerPath" d="M 0 0 L 10 5 L 0 10 z"></path></marker><marker orient="auto" markerHeight="12" markerWidth="12" markerUnits="userSpaceOnUse" refY="5" refX="4.5" viewBox="0 0 10 10" class="marker flowchart" id="svg_flowchart-pointStart"><path style="stroke-width: 1; stroke-dasharray: 1, 0;" class="arrowMarkerPath" d="M 0 5 L 10 10 L 10 0 z"></path></marker><marker orient="auto" markerHeight="11" markerWidth="11" markerUnits="userSpaceOnUse" refY="5" refX="11" viewBox="0 0 10 10" class="marker flowchart" id="svg_flowchart-circleEnd"><circle style="stroke-width: 1; stroke-dasharray: 1, 0;" class="arrowMarkerPath" r="5" cy="5" cx="5"></circle></marker><marker orient="auto" markerHeight="11" markerWidth="11" markerUnits="userSpaceOnUse" refY="5" refX="-1" viewBox="0 0 10 10" class="marker flowchart" id="svg_flowchart-circleStart"><circle style="stroke-width: 1; stroke-dasharray: 1, 0;" class="arrowMarkerPath" r="5" cy="5" cx="5"></circle></marker><marker orient="auto" markerHeight="11" markerWidth="11" markerUnits="userSpaceOnUse" refY="5.2" refX="12" viewBox="0 0 11 11" class="marker cross flowchart" id="svg_flowchart-crossEnd"><path style="stroke-width: 2; stroke-dasharray: 1, 0;" class="arrowMarkerPath" d="M 1,1 l 9,9 M 10,1 l -9,9"></path></marker><marker orient="auto" markerHeight="11" markerWidth="11" markerUnits="userSpaceOnUse" refY="5.2" refX="-1" viewBox="0 0 11 11" class="marker cross flowchart" id="svg_flowchart-crossStart"><path style="stroke-width: 2; stroke-dasharray: 1, 0;" class="arrowMarkerPath" d="M 1,1 l 9,9 M 10,1 l -9,9"></path></marker><g class="root"><g class="clusters"><g id="响应更新" class="cluster default flowchart-label"><rect height="539" width="261" y="505" x="0" ry="0" rx="0" style=""></rect><g transform="translate(98.5, 505)" class="cluster-label"><foreignObject height="21" width="64"><div style="display: inline-block; white-space: nowrap;" xmlns="http://www.w3.org/1999/xhtml"><span class="nodeLabel">响应更新</span></div></foreignObject></g></g><g id="依赖收集" class="cluster default flowchart-label"><rect height="652" width="255" y="111" x="281" ry="0" rx="0" style=""></rect><g transform="translate(376.5, 111)" class="cluster-label"><foreignObject height="21" width="64"><div style="display: inline-block; white-space: nowrap;" xmlns="http://www.w3.org/1999/xhtml"><span class="nodeLabel">依赖收集</span></div></foreignObject></g></g><g id="数据初始化" class="cluster default flowchart-label"><rect height="455" width="336" y="0" x="556" ry="0" rx="0" style=""></rect><g transform="translate(684, 0)" class="cluster-label"><foreignObject height="21" width="80"><div style="display: inline-block; white-space: nowrap;" xmlns="http://www.w3.org/1999/xhtml"><span class="nodeLabel">数据初始化</span></div></foreignObject></g></g></g><g class="edgePaths"><path marker-end="url(#svg_flowchart-pointEnd)" style="fill:none;" class="edge-thickness-normal edge-pattern-solid flowchart-link LS-A LE-B" id="L-A-B-0" d="M724,61L724,65.167C724,69.333,724,77.667,724,86C724,94.333,724,102.667,724,110.283C724,117.9,724,124.8,724,128.25L724,131.7"></path><path marker-end="url(#svg_flowchart-pointEnd)" style="fill:none;" class="edge-thickness-normal edge-pattern-solid flowchart-link LS-B LE-C" id="L-B-C-0" d="M724,171L724,175.333C724,179.667,724,188.333,724,195.95C724,203.567,724,210.133,724,213.417L724,216.7"></path><path marker-end="url(#svg_flowchart-pointEnd)" style="fill:none;" class="edge-thickness-normal edge-pattern-solid flowchart-link LS-C LE-D" id="L-C-D-0" d="M724,258L724,262.167C724,266.333,724,274.667,724,282.117C724,289.567,724,296.133,724,299.417L724,302.7"></path><path marker-end="url(#svg_flowchart-pointEnd)" style="fill:none;" class="edge-thickness-normal edge-pattern-solid flowchart-link LS-D LE-E" id="L-D-E-0" d="M724,344L724,348.167C724,352.333,724,360.667,724,368.117C724,375.567,724,382.133,724,385.417L724,388.7"></path><path marker-end="url(#svg_flowchart-pointEnd)" style="fill:none;" class="edge-thickness-normal edge-pattern-solid flowchart-link LS-F LE-G" id="L-F-G-0" d="M406,172L406,176.167C406,180.333,406,188.667,406,196.117C406,203.567,406,210.133,406,213.417L406,216.7"></path><path marker-end="url(#svg_flowchart-pointEnd)" style="fill:none;" class="edge-thickness-normal edge-pattern-solid flowchart-link LS-G LE-H" id="L-G-H-0" d="M406,258L406,262.167C406,266.333,406,274.667,406,282.117C406,289.567,406,296.133,406,299.417L406,302.7"></path><path marker-end="url(#svg_flowchart-pointEnd)" style="fill:none;" class="edge-thickness-normal edge-pattern-solid flowchart-link LS-H LE-I" id="L-H-I-0" d="M406,344L406,348.167C406,352.333,406,360.667,406,368.117C406,375.567,406,382.133,406,385.417L406,388.7"></path><path marker-end="url(#svg_flowchart-pointEnd)" style="fill:none;" class="edge-thickness-normal edge-pattern-solid flowchart-link LS-I LE-J" id="L-I-J-0" d="M406,430L406,434.167C406,438.333,406,446.667,406,455C406,463.333,406,471.667,406,480C406,488.333,406,496.667,406.769,504.14C407.538,511.613,409.076,518.225,409.845,521.531L410.613,524.838"></path><path marker-end="url(#svg_flowchart-pointEnd)" style="fill:none;" class="edge-thickness-normal edge-pattern-solid flowchart-link LS-J LE-K" id="L-J-K-0" d="M416,566L416,570.167C416,574.333,416,582.667,416,590.117C416,597.567,416,604.133,416,607.417L416,610.7"></path><path marker-end="url(#svg_flowchart-pointEnd)" style="fill:none;" class="edge-thickness-normal edge-pattern-solid flowchart-link LS-K LE-L" id="L-K-L-0" d="M416,652L416,656.167C416,660.333,416,668.667,416,676.117C416,683.567,416,690.133,416,693.417L416,696.7"></path><path marker-end="url(#svg_flowchart-pointEnd)" style="fill:none;" class="edge-thickness-normal edge-pattern-solid flowchart-link LS-M LE-N" id="L-M-N-0" d="M114.5,566L114.5,570.167C114.5,574.333,114.5,582.667,114.5,590.117C114.5,597.567,114.5,604.133,114.5,607.417L114.5,610.7"></path><path marker-end="url(#svg_flowchart-pointEnd)" style="fill:none;" class="edge-thickness-normal edge-pattern-solid flowchart-link LS-N LE-O" id="L-N-O-0" d="M114.5,652L114.5,656.167C114.5,660.333,114.5,668.667,114.5,676.117C114.5,683.567,114.5,690.133,114.5,693.417L114.5,696.7"></path><path marker-end="url(#svg_flowchart-pointEnd)" style="fill:none;" class="edge-thickness-normal edge-pattern-solid flowchart-link LS-O LE-P" id="L-O-P-0" d="M114.5,738L114.5,742.167C114.5,746.333,114.5,754.667,114.5,763C114.5,771.333,114.5,779.667,115.742,787.172C116.985,794.678,119.469,801.355,120.712,804.694L121.954,808.033"></path><path marker-end="url(#svg_flowchart-pointEnd)" style="fill:none;" class="edge-thickness-normal edge-pattern-solid flowchart-link LS-P LE-Q" id="L-P-Q-0" d="M130.5,849L130.5,853.167C130.5,857.333,130.5,865.667,130.5,873.117C130.5,880.567,130.5,887.133,130.5,890.417L130.5,893.7"></path><path marker-end="url(#svg_flowchart-pointEnd)" style="fill:none;" class="edge-thickness-normal edge-pattern-solid flowchart-link LS-Q LE-R" id="L-Q-R-0" d="M130.5,933L130.5,937.167C130.5,941.333,130.5,949.667,130.5,957.117C130.5,964.567,130.5,971.133,130.5,974.417L130.5,977.7"></path><path marker-end="url(#svg_flowchart-pointEnd)" style="fill:none;" class="edge-thickness-normal edge-pattern-solid flowchart-link LS-E LE-J" id="L-E-J-0" d="M724,430L724,434.167C724,438.333,724,446.667,681.417,455C638.833,463.333,553.667,471.667,511.083,480C468.5,488.333,468.5,496.667,464.096,504.44C459.692,512.214,450.885,519.428,446.481,523.035L442.077,526.642"></path><path marker-end="url(#svg_flowchart-pointEnd)" style="fill:none;" class="edge-thickness-normal edge-pattern-solid flowchart-link LS-L LE-P" id="L-L-P-0" d="M416,738L416,742.167C416,746.333,416,754.667,377.625,763C339.25,771.333,262.5,779.667,219.468,787.457C176.437,795.248,167.124,802.497,162.467,806.121L157.81,809.745"></path></g><g class="edgeLabels"><g class="edgeLabel"><g transform="translate(0, 0)" class="label"><foreignObject height="0" width="0"><div style="display: inline-block; white-space: nowrap;" xmlns="http://www.w3.org/1999/xhtml"><span class="edgeLabel"></span></div></foreignObject></g></g><g class="edgeLabel"><g transform="translate(0, 0)" class="label"><foreignObject height="0" width="0"><div style="display: inline-block; white-space: nowrap;" xmlns="http://www.w3.org/1999/xhtml"><span class="edgeLabel"></span></div></foreignObject></g></g><g class="edgeLabel"><g transform="translate(0, 0)" class="label"><foreignObject height="0" width="0"><div style="display: inline-block; white-space: nowrap;" xmlns="http://www.w3.org/1999/xhtml"><span class="edgeLabel"></span></div></foreignObject></g></g><g class="edgeLabel"><g transform="translate(0, 0)" class="label"><foreignObject height="0" width="0"><div style="display: inline-block; white-space: nowrap;" xmlns="http://www.w3.org/1999/xhtml"><span class="edgeLabel"></span></div></foreignObject></g></g><g class="edgeLabel"><g transform="translate(0, 0)" class="label"><foreignObject height="0" width="0"><div style="display: inline-block; white-space: nowrap;" xmlns="http://www.w3.org/1999/xhtml"><span class="edgeLabel"></span></div></foreignObject></g></g><g class="edgeLabel"><g transform="translate(0, 0)" class="label"><foreignObject height="0" width="0"><div style="display: inline-block; white-space: nowrap;" xmlns="http://www.w3.org/1999/xhtml"><span class="edgeLabel"></span></div></foreignObject></g></g><g class="edgeLabel"><g transform="translate(0, 0)" class="label"><foreignObject height="0" width="0"><div style="display: inline-block; white-space: nowrap;" xmlns="http://www.w3.org/1999/xhtml"><span class="edgeLabel"></span></div></foreignObject></g></g><g class="edgeLabel"><g transform="translate(0, 0)" class="label"><foreignObject height="0" width="0"><div style="display: inline-block; white-space: nowrap;" xmlns="http://www.w3.org/1999/xhtml"><span class="edgeLabel"></span></div></foreignObject></g></g><g class="edgeLabel"><g transform="translate(0, 0)" class="label"><foreignObject height="0" width="0"><div style="display: inline-block; white-space: nowrap;" xmlns="http://www.w3.org/1999/xhtml"><span class="edgeLabel"></span></div></foreignObject></g></g><g class="edgeLabel"><g transform="translate(0, 0)" class="label"><foreignObject height="0" width="0"><div style="display: inline-block; white-space: nowrap;" xmlns="http://www.w3.org/1999/xhtml"><span class="edgeLabel"></span></div></foreignObject></g></g><g class="edgeLabel"><g transform="translate(0, 0)" class="label"><foreignObject height="0" width="0"><div style="display: inline-block; white-space: nowrap;" xmlns="http://www.w3.org/1999/xhtml"><span class="edgeLabel"></span></div></foreignObject></g></g><g class="edgeLabel"><g transform="translate(0, 0)" class="label"><foreignObject height="0" width="0"><div style="display: inline-block; white-space: nowrap;" xmlns="http://www.w3.org/1999/xhtml"><span class="edgeLabel"></span></div></foreignObject></g></g><g class="edgeLabel"><g transform="translate(0, 0)" class="label"><foreignObject height="0" width="0"><div style="display: inline-block; white-space: nowrap;" xmlns="http://www.w3.org/1999/xhtml"><span class="edgeLabel"></span></div></foreignObject></g></g><g class="edgeLabel"><g transform="translate(0, 0)" class="label"><foreignObject height="0" width="0"><div style="display: inline-block; white-space: nowrap;" xmlns="http://www.w3.org/1999/xhtml"><span class="edgeLabel"></span></div></foreignObject></g></g><g class="edgeLabel"><g transform="translate(0, 0)" class="label"><foreignObject height="0" width="0"><div style="display: inline-block; white-space: nowrap;" xmlns="http://www.w3.org/1999/xhtml"><span class="edgeLabel"></span></div></foreignObject></g></g><g class="edgeLabel"><g transform="translate(0, 0)" class="label"><foreignObject height="0" width="0"><div style="display: inline-block; white-space: nowrap;" xmlns="http://www.w3.org/1999/xhtml"><span class="edgeLabel"></span></div></foreignObject></g></g><g class="edgeLabel"><g transform="translate(0, 0)" class="label"><foreignObject height="0" width="0"><div style="display: inline-block; white-space: nowrap;" xmlns="http://www.w3.org/1999/xhtml"><span class="edgeLabel"></span></div></foreignObject></g></g></g><g class="nodes"><g transform="translate(114.5, 634)" data-id="N" data-node="true" id="flowchart-N-21" class="node default default flowchart-label"><rect height="36" width="94" y="-18" x="-47" ry="0" rx="0" style="" class="basic label-container"></rect><g transform="translate(-39.5, -10.5)" style="" class="label"><rect></rect><foreignObject height="21" width="79"><div style="display: inline-block; white-space: nowrap;" xmlns="http://www.w3.org/1999/xhtml"><span class="nodeLabel">触发setter</span></div></foreignObject></g></g><g transform="translate(114.5, 548)" data-id="M" data-node="true" id="flowchart-M-20" class="node default default flowchart-label"><rect height="36" width="79" y="-18" x="-39.5" ry="0" rx="0" style="" class="basic label-container"></rect><g transform="translate(-32, -10.5)" style="" class="label"><rect></rect><foreignObject height="21" width="64"><div style="display: inline-block; white-space: nowrap;" xmlns="http://www.w3.org/1999/xhtml"><span class="nodeLabel">修改数据</span></div></foreignObject></g></g><g transform="translate(114.5, 720)" data-id="O" data-node="true" id="flowchart-O-23" class="node default default flowchart-label"><rect height="36" width="127" y="-18" x="-63.5" ry="0" rx="0" style="" class="basic label-container"></rect><g transform="translate(-56, -10.5)" style="" class="label"><rect></rect><foreignObject height="21" width="112"><div style="display: inline-block; white-space: nowrap;" xmlns="http://www.w3.org/1999/xhtml"><span class="nodeLabel">调用dep.notify</span></div></foreignObject></g></g><g transform="translate(130.5, 831)" data-id="P" data-node="true" id="flowchart-P-25" class="node default default flowchart-label"><rect height="36" width="146" y="-18" x="-73" ry="0" rx="0" style="" class="basic label-container"></rect><g transform="translate(-65.5, -10.5)" style="" class="label"><rect></rect><foreignObject height="21" width="131"><div style="display: inline-block; white-space: nowrap;" xmlns="http://www.w3.org/1999/xhtml"><span class="nodeLabel">通知相关Watcher</span></div></foreignObject></g></g><g transform="translate(130.5, 916)" data-id="Q" data-node="true" id="flowchart-Q-27" class="node default default flowchart-label"><rect height="34" width="142" y="-17" x="-71" ry="0" rx="0" style="" class="basic label-container"></rect><g transform="translate(-63.5, -9.5)" style="" class="label"><rect></rect><foreignObject height="19" width="127"><div style="display: inline-block; white-space: nowrap;" xmlns="http://www.w3.org/1999/xhtml"><span class="nodeLabel">Watcher.update</span></div></foreignObject></g></g><g transform="translate(130.5, 1001)" data-id="R" data-node="true" id="flowchart-R-29" class="node default default flowchart-label"><rect height="36" width="191" y="-18" x="-95.5" ry="0" rx="0" style="" class="basic label-container"></rect><g transform="translate(-88, -10.5)" style="" class="label"><rect></rect><foreignObject height="21" width="176"><div style="display: inline-block; white-space: nowrap;" xmlns="http://www.w3.org/1999/xhtml"><span class="nodeLabel">执行回调或重新渲染组件</span></div></foreignObject></g></g><g transform="translate(406, 240)" data-id="G" data-node="true" id="flowchart-G-9" class="node default default flowchart-label"><rect height="36" width="114" y="-18" x="-57" ry="0" rx="0" style="" class="basic label-container"></rect><g transform="translate(-49.5, -10.5)" style="" class="label"><rect></rect><foreignObject height="21" width="99"><div style="display: inline-block; white-space: nowrap;" xmlns="http://www.w3.org/1999/xhtml"><span class="nodeLabel">创建Watcher</span></div></foreignObject></g></g><g transform="translate(406, 154)" data-id="F" data-node="true" id="flowchart-F-8" class="node default default flowchart-label"><rect height="36" width="180" y="-18" x="-90" ry="0" rx="0" style="" class="basic label-container"></rect><g transform="translate(-82.5, -10.5)" style="" class="label"><rect></rect><foreignObject height="21" width="165"><div style="display: inline-block; white-space: nowrap;" xmlns="http://www.w3.org/1999/xhtml"><span class="nodeLabel">渲染组件/计算属性执行</span></div></foreignObject></g></g><g transform="translate(406, 326)" data-id="H" data-node="true" id="flowchart-H-11" class="node default default flowchart-label"><rect height="36" width="144" y="-18" x="-72" ry="0" rx="0" style="" class="basic label-container"></rect><g transform="translate(-64.5, -10.5)" style="" class="label"><rect></rect><foreignObject height="21" width="129"><div style="display: inline-block; white-space: nowrap;" xmlns="http://www.w3.org/1999/xhtml"><span class="nodeLabel">Watcher.get执行</span></div></foreignObject></g></g><g transform="translate(406, 412)" data-id="I" data-node="true" id="flowchart-I-13" class="node default default flowchart-label"><rect height="36" width="133" y="-18" x="-66.5" ry="0" rx="0" style="" class="basic label-container"></rect><g transform="translate(-59, -10.5)" style="" class="label"><rect></rect><foreignObject height="21" width="118"><div style="display: inline-block; white-space: nowrap;" xmlns="http://www.w3.org/1999/xhtml"><span class="nodeLabel">设置Dep.target</span></div></foreignObject></g></g><g transform="translate(416, 548)" data-id="J" data-node="true" id="flowchart-J-15" class="node default default flowchart-label"><rect height="36" width="160" y="-18" x="-80" ry="0" rx="0" style="" class="basic label-container"></rect><g transform="translate(-72.5, -10.5)" style="" class="label"><rect></rect><foreignObject height="21" width="145"><div style="display: inline-block; white-space: nowrap;" xmlns="http://www.w3.org/1999/xhtml"><span class="nodeLabel">执行getter访问数据</span></div></foreignObject></g></g><g transform="translate(416, 634)" data-id="K" data-node="true" id="flowchart-K-17" class="node default default flowchart-label"><rect height="36" width="142" y="-18" x="-71" ry="0" rx="0" style="" class="basic label-container"></rect><g transform="translate(-63.5, -10.5)" style="" class="label"><rect></rect><foreignObject height="21" width="127"><div style="display: inline-block; white-space: nowrap;" xmlns="http://www.w3.org/1999/xhtml"><span class="nodeLabel">触发dep.depend</span></div></foreignObject></g></g><g transform="translate(416, 720)" data-id="L" data-node="true" id="flowchart-L-19" class="node default default flowchart-label"><rect height="36" width="146" y="-18" x="-73" ry="0" rx="0" style="" class="basic label-container"></rect><g transform="translate(-65.5, -10.5)" style="" class="label"><rect></rect><foreignObject height="21" width="131"><div style="display: inline-block; white-space: nowrap;" xmlns="http://www.w3.org/1999/xhtml"><span class="nodeLabel">收集当前Watcher</span></div></foreignObject></g></g><g transform="translate(724, 154)" data-id="B" data-node="true" id="flowchart-B-1" class="node default default flowchart-label"><rect height="34" width="77" y="-17" x="-38.5" ry="0" rx="0" style="" class="basic label-container"></rect><g transform="translate(-31, -9.5)" style="" class="label"><rect></rect><foreignObject height="19" width="62"><div style="display: inline-block; white-space: nowrap;" xmlns="http://www.w3.org/1999/xhtml"><span class="nodeLabel">initData</span></div></foreignObject></g></g><g transform="translate(724, 43)" data-id="A" data-node="true" id="flowchart-A-0" class="node default default flowchart-label"><rect height="36" width="109" y="-18" x="-54.5" ry="0" rx="0" style="" class="basic label-container"></rect><g transform="translate(-47, -10.5)" style="" class="label"><rect></rect><foreignObject height="21" width="94"><div style="display: inline-block; white-space: nowrap;" xmlns="http://www.w3.org/1999/xhtml"><span class="nodeLabel">创建Vue实例</span></div></foreignObject></g></g><g transform="translate(724, 240)" data-id="C" data-node="true" id="flowchart-C-3" class="node default default flowchart-label"><rect height="36" width="175" y="-18" x="-87.5" ry="0" rx="0" style="" class="basic label-container"></rect><g transform="translate(-80, -10.5)" style="" class="label"><rect></rect><foreignObject height="21" width="160"><div style="display: inline-block; white-space: nowrap;" xmlns="http://www.w3.org/1999/xhtml"><span class="nodeLabel">observe转换为响应式</span></div></foreignObject></g></g><g transform="translate(724, 326)" data-id="D" data-node="true" id="flowchart-D-5" class="node default default flowchart-label"><rect height="36" width="153" y="-18" x="-76.5" ry="0" rx="0" style="" class="basic label-container"></rect><g transform="translate(-69, -10.5)" style="" class="label"><rect></rect><foreignObject height="21" width="138"><div style="display: inline-block; white-space: nowrap;" xmlns="http://www.w3.org/1999/xhtml"><span class="nodeLabel">创建Observer实例</span></div></foreignObject></g></g><g transform="translate(724, 412)" data-id="E" data-node="true" id="flowchart-E-7" class="node default default flowchart-label"><rect height="36" width="266" y="-18" x="-133" ry="0" rx="0" style="" class="basic label-container"></rect><g transform="translate(-125.5, -10.5)" style="" class="label"><rect></rect><foreignObject height="21" width="251"><div style="display: inline-block; white-space: nowrap;" xmlns="http://www.w3.org/1999/xhtml"><span class="nodeLabel">defineReactive定义getter/setter</span></div></foreignObject></g></g></g></g></g></svg>